<svg xmlns="http://www.w3.org/2000/svg" xmlns:xlink="http://www.w3.org/1999/xlink" width="36" height="36" viewBox="0 0 36 36"><defs><path id="la15a" d="M321.146 1775.504c1.213 0 2.196.983 2.196 2.196v19.766a2.196 2.196 0 0 1-2.196 2.196H294.79a2.196 2.196 0 0 1-2.196-2.196v-1.098h26.355v-17.57h-5.49v-3.294zm-30.747-10.981h19.766c1.213 0 2.196.983 2.196 2.196v26.354a2.196 2.196 0 0 1-2.196 2.197h-19.766a2.196 2.196 0 0 1-2.196-2.197v-26.354c0-1.213.983-2.196 2.196-2.196zm1.098 26.354h17.57v-23.06h-17.57zm7.687 2.196a1.098 1.098 0 1 0 2.195 0 1.098 1.098 0 0 0-2.195 0zm20.864-5.49a1.098 1.098 0 1 0 2.196 0 1.098 1.098 0 0 0-2.196 0z"/></defs><g><g transform="translate(-288 -1764)"><use fill="#fff" xlink:href="#la15a"/></g></g></svg>