<svg xmlns="http://www.w3.org/2000/svg" xmlns:xlink="http://www.w3.org/1999/xlink" width="272" height="197"><defs><path id="a" d="M312.621 1240.81c0-34.31 27.888-62.227 62.168-62.227s62.168 27.916 62.168 62.227c0 34.312-27.888 62.228-62.168 62.228s-62.168-27.916-62.168-62.228zm21.52 0c0 22.436 18.234 40.686 40.648 40.686s40.648-18.25 40.648-40.686c0-22.435-18.234-40.685-40.648-40.685s-40.648 18.25-40.648 40.685zm145.58 122.698c0 5.949-4.818 10.771-10.76 10.771H280.62c-5.942 0-10.76-4.822-10.76-10.77 0-31.425 58.519-52.462 76.453-58.158a10.744 10.744 0 0 1 10.206 2.042l18.27 15.477 18.277-15.477a10.732 10.732 0 0 1 10.203-2.042c17.935 5.696 76.454 26.733 76.454 58.157zm-28.944-10.77c-10.232-8.662-29.548-18.371-48.434-24.987l-20.606 17.45a10.75 10.75 0 0 1-13.9 0l-20.6-17.45c-18.886 6.616-38.204 16.325-48.434 24.986zm89.699-6.985c0 4.46-3.612 8.078-8.07 8.078h-40.07c-4.458 0-8.07-3.618-8.07-8.078a8.071 8.071 0 0 1 8.07-8.078h28.687c-5.722-7.694-17.467-15.273-24.05-18.555a8.09 8.09 0 0 1-3.633-10.828c1.983-3.992 6.822-5.622 10.807-3.645 3.718 1.846 36.329 18.665 36.329 41.106zm-51.602-79.64c0-13.643-11.091-24.745-24.725-24.745a24.61 24.61 0 0 0-9.625 1.946c-4.099 1.736-8.84-.19-10.574-4.302a8.08 8.08 0 0 1 4.295-10.582 40.598 40.598 0 0 1 15.904-3.218c22.534 0 40.865 18.349 40.865 40.9 0 22.563-18.331 40.912-40.865 40.912-10.918 0-21.18-4.254-28.897-11.98a8.09 8.09 0 0 1 .002-11.429 8.07 8.07 0 0 1 11.415.005c4.668 4.676 10.875 7.248 17.48 7.248 13.634 0 24.725-11.102 24.725-24.755z"/></defs><use fill="#e0e0e0" xlink:href="#a" transform="translate(-269 -1178)"/></svg>