<svg xmlns="http://www.w3.org/2000/svg" xmlns:xlink="http://www.w3.org/1999/xlink" width="38" height="38"><defs><path id="a" d="M323.09 1923.753s-4.325 5.738-9.72 9.787l-.014-.048s.003.049 0 .06l.015-.012c2.205 7.343 2.693 13.637 2.693 13.637l-11.693-7.107s-.016.006-.02.006c-.007 0-.03-.01-.04-.013-5.709 3.948-11.672 7.114-11.672 7.114s.484-6.279 2.686-13.61a.512.512 0 0 1 .016.012l-.005-.05-.011.037c-5.391-4.045-9.713-9.813-9.713-9.813l12.883-1.171 5.857-12.884 5.856 12.884z"/></defs><use fill="#fff" xlink:href="#a" transform="translate(-285 -1909)"/></svg>